HIERARCHY
ROOT Hips
{
	OFFSET 0.000000 0.000000 0.000000 
	CHANNELS 6 Xposition Yposition Zposition Yrotation Zrotation Xrotation 
	JOINT Lumbar
	{
		OFFSET 0.000000 0.000000 0.000000 
		CHANNELS 3 Zrotation Xrotation Yrotation
		JOINT Neck
		{
			OFFSET 0.000000 0.445665 0.000000 
			CHANNELS 3 Zrotation Xrotation Yrotation
			End Site
			{
				OFFSET 0.000000 0.227535 0.000000 
			}
		}
		JOINT RightShoulder
		{
			OFFSET 0.019635 0.377685 0.194865 
			CHANNELS 3 Zrotation Xrotation Yrotation
			JOINT RightElbow
			{
				OFFSET 0.000000 -0.243375 0.000000 
				CHANNELS 2 Zrotation Yrotation
				JOINT RightWrist
				{
					OFFSET 0.000000 -0.264825 0.000000 
					CHANNELS 2 Zrotation Xrotation
					End Site
					{
						OFFSET 0.006600 -0.176220 0.000990 
					}
				}
			}
		}
		JOINT LeftShoulder
		{
			OFFSET 0.019635 0.377685 -0.194865 
			CHANNELS 3 Zrotation Xrotation Yrotation
			JOINT LeftElbow
			{
				OFFSET 0.000000 -0.243375 0.000000 
				CHANNELS 2 Zrotation Yrotation
				JOINT LeftWrist
				{
					OFFSET 0.000000 -0.264825 0.000000 
					CHANNELS 2 Zrotation Xrotation
					End Site
					{
						OFFSET 0.006600 -0.176220 -0.000990 
					}
				}
			}
		}
	}
	JOINT RightHip
	{
		OFFSET 0.052140 -0.069960 0.075570 
		CHANNELS 3 Zrotation Xrotation Yrotation
		JOINT RightKnee
		{
			OFFSET 0.000000 -0.402270 0.000000 
			CHANNELS 1 Zrotation
			JOINT RightAnkle
			{
				OFFSET 0.000000 -0.404085 0.000000 
				CHANNELS 3 Zrotation Xrotation Yrotation
				End Site
				{
					OFFSET 0.204105 -0.089430 0.008415 
				}
			}
		}
	}
	JOINT LeftHip
	{
		OFFSET 0.052140 -0.069960 -0.075570 
		CHANNELS 3 Zrotation Xrotation Yrotation
		JOINT LeftKnee
		{
			OFFSET 0.000000 -0.402270 0.000000 
			CHANNELS 1 Zrotation
			JOINT LeftAnkle
			{
				OFFSET 0.000000 -0.404085 0.000000 
				CHANNELS 3 Zrotation Xrotation Yrotation
				End Site
				{
					OFFSET 0.204105 -0.089430 -0.008415 
				}
			}
		}
	}
}
MOTION
Frames: 22
Frame Time: 0.02
-0.00083 0.00049 -0.00123 169.91274 -32.8929 -2.86292 47.0628 3.53632 -16.7694 -9.05038 4.8038 -0.51549 -13.36149 -10.30495 -4.82026 28.18736 125.31549 9.95171 7.99352 -19.92185 21.16332 -9.49734 61.3222 -91.97351 7.85738 0.13152 37.32063 1.39015 -13.51677 -21.38369 -7.29419 -3.05904 -2.27604 36.86248 13.02573 5.5674 -27.30402 -10.18066 5.33171 3.69826
-0.00281 0.00061 0.0022 169.65061 -32.61422 -2.93214 47.0221 3.5708 -16.8877 -9.02027 4.72002 -0.51591 -13.2146 -10.26695 -4.58987 28.27738 122.91571 9.62191 7.54183 -20.78508 20.91102 -9.84352 61.11513 -92.23268 7.97322 0.08815 36.91448 1.25141 -13.31023 -21.28227 -7.31602 -3.05137 -2.27089 36.37402 12.75196 5.28335 -27.24075 -10.21618 5.36421 3.71896
-0.00478 0.00074 0.00563 169.38905 -32.3363 -3.00126 46.98171 3.6052 -17.00555 -8.99047 4.6365 -0.51632 -13.06867 -10.22902 -4.36024 28.36752 120.52282 9.2929 7.0915 -21.64781 20.66031 -10.19042 60.91053 -92.48965 8.08767 0.04502 36.50943 1.11308 -13.10328 -21.18111 -7.33784 -3.0438 -2.2658 35.88686 12.47869 4.99971 -27.17768 -10.25164 5.39664 3.73962
-0.00676 0.00087 0.00905 169.12768 -32.05846 -3.07028 46.94115 3.63957 -17.12348 -8.96047 4.55297 -0.51674 -12.9223 -10.19113 -4.13057 28.45734 118.13047 8.96409 6.64123 -22.5087 20.409 -10.53594 60.70438 -92.74774 8.20293 0.0018 36.1045 0.97478 -12.89717 -21.07999 -7.35961 -3.03617 -2.26067 35.39985 12.2057 4.71641 -27.1146 -10.28707 5.42905 3.76026
-0.00873 0.001 0.01247 168.86584 -31.77991 -3.13935 46.90023 3.67401 -17.24185 -8.9301 4.46919 -0.51715 -12.77483 -10.15321 -3.90012 28.54686 115.73111 8.63454 6.18952 -23.36936 20.15561 -10.87975 60.49511 -93.00871 8.32011 -0.0417 35.69852 0.83606 -12.69195 -20.97865 -7.38139 -3.02839 -2.25545 34.91166 11.93236 4.43299 -27.05132 -10.32251 5.4615 3.78093
-0.01071 0.00112 0.01589 168.60488 -31.50336 -3.20858 46.86096 3.70831 -17.35858 -8.90156 4.38623 -0.51757 -12.63219 -10.11525 -3.6722 28.63825 113.35176 8.30666 5.74205 -24.23642 19.91043 -11.23294 60.30037 -93.25737 8.4289 -0.08404 35.29547 0.69853 -12.48145 -20.87787 -7.40329 -3.02127 -2.25062 34.4267 11.65929 4.14898 -26.98871 -10.35803 5.49391 3.80158
-0.01269 0.00125 0.01932 168.34241 -31.22304 -3.2774 46.81835 3.74286 -17.47858 -8.86926 4.3017 -0.51798 -12.47986 -10.0774 -3.43951 28.72589 110.93573 7.97591 5.28684 -25.08939 19.64953 -11.56773 60.07655 -93.53008 8.55405 -0.12867 34.88695 0.55882 -12.28155 -20.77607 -7.42491 -3.01285 -2.24504 33.93572 11.38592 3.86614 -26.92481 -10.3934 5.52638 3.82226
-0.01466 0.00138 0.02274 168.08138 -30.94627 -3.34661 46.77894 3.77718 -17.59537 -8.8406 4.21861 -0.5184 -12.33668 -10.03949 -3.21108 28.81679 108.55177 7.64757 4.83819 -25.95583 19.40216 -11.9179 59.87962 -93.78141 8.66487 -0.17119 34.48354 0.42101 -12.07234 -20.67522 -7.44679 -3.00558 -2.24012 33.45039 11.11294 3.58284 -26.86211 -10.42882 5.55877 3.84288
-0.01662 0.00151 0.02616 167.82178 -30.67346 -3.41632 46.74299 3.81124 -17.70906 -8.81573 4.13729 -0.51882 -12.20386 -10.0013 -2.98832 28.91256 106.21292 7.3229 4.39966 -26.83762 19.1752 -12.29366 59.71551 -94.0033 8.75499 -0.21111 34.0859 0.28589 -11.84964 -20.57542 -7.46902 -2.99994 -2.23612 32.97133 10.83981 3.29631 -26.80079 -10.46465 5.59119 3.86355
-0.01865 0.00164 0.02959 167.55296 -30.3767 -3.4832 46.68579 3.84684 -17.84304 -8.76708 4.04583 -0.51921 -12.00899 -9.96408 -2.73431 28.98299 103.6322 6.9793 3.90921 -27.62779 18.84247 -12.54263 59.36246 -94.38462 8.95464 -0.26595 33.65362 0.13641 -11.69818 -20.46925 -7.48932 -2.98559 -2.22716 32.45426 10.56561 3.02034 -26.73127 -10.49919 5.6238 3.8843
-0.02053 0.00176 0.03301 167.30427 -30.13121 -3.55602 46.67424 3.87918 -17.93267 -8.76984 3.97571 -0.51966 -11.94654 -9.92527 -2.54537 29.10512 101.55069 6.67431 3.5243 -28.61306 18.72536 -13.04582 59.40792 -94.43606 8.92944 -0.28934 33.29538 0.01652 -11.4006 -20.37675 -7.51363 -2.98919 -2.22846 32.01866 10.29498 2.72726 -26.67925 -10.53573 5.65576 3.90467
-0.02204 0.00187 0.03638 167.10622 -30.02132 -3.64548 46.78262 3.90264 -17.91193 -8.90527 3.96484 -0.52027 -12.23926 -9.87823 -2.54429 29.38525 100.94688 6.48756 3.466 -30.12401 19.26907 -14.36502 60.55879 -93.51872 8.22844 -0.22539 33.13408 -0.01563 -10.66331 -20.3202 -7.54966 -3.04605 -2.25998 31.79802 10.02334 2.34434 -26.6739 -10.58387 5.68806 3.92554
-0.02341 0.00197 0.03975 166.92961 -29.96366 -3.74075 46.93772 3.92277 -17.84455 -9.09398 3.97506 -0.52094 -12.66669 -9.83023 -2.60716 29.71445 100.8272 6.33774 3.50773 -31.83173 20.01739 -15.91879 62.10716 -92.28118 7.31179 -0.13006 33.04803 -0.01933 -9.78647 -20.27764 -7.5896 -3.12022 -2.30143 31.66059 9.75728 1.95226 -26.68633 -10.63283 5.71929 3.9457
-0.02483 0.00207 0.04312 166.74575 -29.88563 -3.83324 47.07511 3.94447 -17.79107 -9.26372 3.97546 -0.52157 -13.03763 -9.78534 -2.63424 30.01048 100.41189 6.16244 3.47831 -33.457 20.62577 -17.2863 63.46648 -91.2326 6.53318 -0.04981 32.93194 -0.04021 -8.99878 -20.22977 -7.62726 -3.1838 -2.33695 31.49091 9.49575 1.59224 -26.69157 -10.67747 5.74965 3.96517
-0.02629 0.00217 0.04649 166.54993 -29.7942 -3.92666 47.19824 3.96616 -17.76827 -9.41112 3.97776 -0.52222 -13.3881 -9.72957 -2.68847 30.35192 100.30495 6.02212 3.55374 -35.05722 21.42901 -18.98545 64.86403 -90.00295 5.58826 0.0339 32.79946 -0.04283 -8.10216 -20.17766 -7.66701 -3.25874 -2.37839 31.29863 9.20446 1.11404 -26.69326 -10.73896 5.78583 3.989
-0.02764 0.00227 0.04986 166.38592 -29.74216 -4.01911 47.36148 3.98681 -17.67057 -9.61807 3.98003 -0.52285 -13.8141 -9.69574 -2.70304 30.61114 99.6853 5.81996 3.43927 -36.75126 21.87964 -20.05587 66.27376 -89.0708 4.93468 0.11792 32.71768 -0.07705 -7.39936 -20.13747 -7.70339 -3.31432 -2.40996 31.17227 8.97639 0.8803 -26.70632 -10.76535 5.80952 4.00348
-0.02868 0.00241 0.0532 166.28926 -29.79384 -4.11083 47.62999 4.00777 -17.37685 -9.97334 3.98548 -0.52346 -14.40694 -9.72711 -2.57741 30.62523 97.40142 5.41819 2.73419 -38.69739 21.2641 -19.27502 67.6384 -89.07545 5.17419 0.19367 32.76815 -0.20318 -7.26637 -20.12884 -7.7291 -3.3105 -2.411 31.21489 8.92196 1.31883 -26.74837 -10.69623 5.80018 3.99312
-0.02961 0.00256 0.05654 166.22691 -29.88193 -4.20064 47.93626 4.02739 -17.00946 -10.38748 3.98818 -0.52405 -15.07275 -9.77989 -2.41241 30.55643 94.60849 4.95652 1.84216 -40.72288 20.29402 -17.86317 68.99753 -89.3862 5.70855 0.26836 32.86509 -0.36262 -7.33308 -20.13133 -7.7514 -3.28695 -2.40193 31.3197 8.93055 2.00372 -26.80089 -10.59156 5.77814 3.97325
-0.03059 0.0027 0.0599 166.1586 -29.9482 -4.28925 48.22118 4.04599 -16.67623 -10.77638 3.9871 -0.52465 -15.71085 -9.81983 -2.27533 30.52899 92.13426 4.53533 1.06325 -42.68563 19.51461 -16.77909 70.34744 -89.52956 6.08346 0.34521 32.93363 -0.50823 -7.30831 -20.12737 -7.77551 -3.27351 -2.39801 31.39103 8.91044 2.58029 -26.84734 -10.50199 5.7611 3.95716
-0.03157 0.00285 0.0632 166.04958 -30.03837 -4.3872 48.52487 4.07115 -16.33858 -11.15984 4.00964 -0.52524 -16.33061 -9.87237 -2.0983 30.48591 89.30999 4.05971 0.16953 -44.76997 18.61956 -15.53362 71.76256 -89.77106 6.55493 0.41841 33.03525 -0.647 -7.28231 -20.12981 -7.79856 -3.25569 -2.39198 31.48676 8.89214 3.145 -26.89992 -10.4165 5.74712 3.9432
-0.03251 0.00299 0.06662 166.0342 -30.08697 -4.46466 48.79851 4.08262 -15.99317 -11.56909 3.98001 -0.52584 -17.00416 -9.90439 -1.99409 30.45729 87.08525 3.68242 -0.53151 -46.61467 17.87606 -14.46695 73.03308 -89.89763 6.90232 0.49564 33.07839 -0.80872 -7.30737 -20.12137 -7.8231 -3.24228 -2.38795 31.54604 8.88326 3.78824 -26.942 -10.31457 5.72397 3.92273
-0.03342 0.00309 0.0703 166.26081 -30.00922 -4.49042 48.97334 4.05489 -15.64437 -12.02485 3.82425 -0.52644 -17.80762 -9.86903 -2.10286 30.46973 86.65921 3.59448 -0.64872 -47.79867 17.66013 -14.08774 73.92328 -89.51856 6.79879 0.61085 32.94506 -1.02205 -7.43076 -20.07995 -7.85138 -3.24409 -2.39092 31.48319 8.89955 4.62912 -26.95245 -10.17164 5.67695 3.88507
